<svg width="47" height="47" viewBox="0 0 47 47" fill="none" xmlns="http://www.w3.org/2000/svg">
<g id="4781840_+_add_circle_create_expand_icon 2" clip-path="url(#clip0_263_113)">
<g id="Layer 2">
<path id="Vector" d="M23.5 42.5938C19.7236 42.5938 16.032 41.4739 12.8921 39.3759C9.75214 37.2778 7.30484 34.2958 5.85968 30.8069C4.41452 27.3179 4.0364 23.4788 4.77314 19.775C5.50988 16.0712 7.32838 12.669 9.99869 9.99869C12.669 7.32838 16.0712 5.50988 19.775 4.77314C23.4788 4.0364 27.3179 4.41452 30.8069 5.85968C34.2958 7.30484 37.2778 9.75214 39.3759 12.8921C41.4739 16.032 42.5938 19.7236 42.5938 23.5C42.5938 28.564 40.5821 33.4206 37.0013 37.0013C33.4206 40.5821 28.564 42.5938 23.5 42.5938ZM23.5 7.34376C20.3046 7.34376 17.181 8.29131 14.5241 10.0666C11.8672 11.8418 9.79641 14.3651 8.57358 17.3173C7.35075 20.2694 7.0308 23.5179 7.6542 26.6519C8.27759 29.7859 9.81632 32.6647 12.0758 34.9242C14.3353 37.1837 17.2141 38.7224 20.3481 39.3458C23.4821 39.9692 26.7306 39.6493 29.6827 38.4264C32.6349 37.2036 35.1582 35.1328 36.9334 32.4759C38.7087 29.8191 39.6563 26.6954 39.6563 23.5C39.6563 19.2151 37.9541 15.1057 34.9242 12.0758C31.8943 9.04593 27.7849 7.34376 23.5 7.34376Z" fill="#F1DEAC"/>
<path id="Vector_2" d="M23.5 33.7812C23.1105 33.7812 22.7369 33.6265 22.4614 33.3511C22.186 33.0756 22.0312 32.702 22.0312 32.3125V14.6875C22.0312 14.298 22.186 13.9244 22.4614 13.6489C22.7369 13.3735 23.1105 13.2188 23.5 13.2188C23.8895 13.2188 24.2631 13.3735 24.5386 13.6489C24.814 13.9244 24.9688 14.298 24.9688 14.6875V32.3125C24.9688 32.702 24.814 33.0756 24.5386 33.3511C24.2631 33.6265 23.8895 33.7812 23.5 33.7812Z" fill="#F1DEAC"/>
<path id="Vector_3" d="M32.3125 24.9688H14.6875C14.298 24.9688 13.9244 24.814 13.6489 24.5386C13.3735 24.2631 13.2188 23.8895 13.2188 23.5C13.2188 23.1105 13.3735 22.7369 13.6489 22.4614C13.9244 22.186 14.298 22.0312 14.6875 22.0312H32.3125C32.702 22.0312 33.0756 22.186 33.3511 22.4614C33.6265 22.7369 33.7812 23.1105 33.7812 23.5C33.7812 23.8895 33.6265 24.2631 33.3511 24.5386C33.0756 24.814 32.702 24.9688 32.3125 24.9688Z" fill="#F1DEAC"/>
</g>
</g>
<defs>
<clipPath id="clip0_263_113">
<rect width="47" height="47" fill="white"/>
</clipPath>
</defs>
</svg>
