<svg width="27" height="24" viewBox="0 0 27 24" fill="none" xmlns="http://www.w3.org/2000/svg">
<g id="8541552_comments_message_chat_icon 1">
<path id="Vector" d="M19.5 9C19.5 4.85625 15.1359 1.5 9.75 1.5C4.36406 1.5 0 4.85625 0 9C0 10.6078 0.660938 12.0891 1.78125 13.3125C1.15313 14.7281 0.117188 15.8531 0.103125 15.8672C0 15.975 -0.028125 16.1344 0.0328125 16.275C0.09375 16.4156 0.225 16.5 0.375 16.5C2.09062 16.5 3.51094 15.9234 4.53281 15.3281C6.04219 16.0641 7.82812 16.5 9.75 16.5C15.1359 16.5 19.5 13.1438 19.5 9ZM25.2188 19.3125C26.3391 18.0938 27 16.6078 27 15C27 11.8641 24.4922 9.17812 20.9391 8.05781C20.9813 8.36719 21 8.68125 21 9C21 13.9641 15.9516 18 9.75 18C9.24375 18 8.75156 17.9625 8.26406 17.9109C9.74063 20.6063 13.2094 22.5 17.25 22.5C19.1719 22.5 20.9578 22.0688 22.4672 21.3281C23.4891 21.9234 24.9094 22.5 26.625 22.5C26.775 22.5 26.9109 22.4109 26.9672 22.275C27.0281 22.1391 27 21.9797 26.8969 21.8672C26.8828 21.8531 25.8469 20.7328 25.2188 19.3125Z" fill="#F1DEAC"/>
</g>
</svg>
