<svg width="17" height="17" viewBox="0 0 17 17" fill="none" xmlns="http://www.w3.org/2000/svg">
<path id="Cross Button" opacity="0.8" d="M0.364286 16.6357C0.607143 16.8786 0.85 17 1.21429 17C1.57857 17 1.82143 16.8786 2.06429 16.6357L8.5 10.2L14.9357 16.6357C15.1786 16.8786 15.5429 17 15.7857 17C16.0286 17 16.3929 16.8786 16.6357 16.6357C17.1214 16.15 17.1214 15.4214 16.6357 14.9357L10.2 8.5L16.6357 2.06429C17.1214 1.57857 17.1214 0.85 16.6357 0.364286C16.15 -0.121429 15.4214 -0.121429 14.9357 0.364286L8.5 6.8L2.06429 0.364286C1.57857 -0.121429 0.85 -0.121429 0.364286 0.364286C-0.121429 0.85 -0.121429 1.57857 0.364286 2.06429L6.8 8.5L0.364286 14.9357C-0.121429 15.4214 -0.121429 16.15 0.364286 16.6357Z" fill="#807D7D"/>
</svg>
