<svg width="20" height="21" viewBox="0 0 20 21" fill="none" xmlns="http://www.w3.org/2000/svg">
<g id="Trashcan Icon">
<path id="Vector" d="M6.125 3.625H6.25V3.5V2.625C6.25 1.96196 6.51339 1.32607 6.98223 0.857233C7.45107 0.388392 8.08696 0.125 8.75 0.125H10.5C11.163 0.125 11.7989 0.388392 12.2678 0.857233C12.7366 1.32607 13 1.96196 13 2.625V3.5V3.625H13.125H18.375C18.5739 3.625 18.7647 3.70402 18.9053 3.84467C19.046 3.98532 19.125 4.17609 19.125 4.375C19.125 4.57391 19.046 4.76468 18.9053 4.90533C18.7647 5.04598 18.5739 5.125 18.375 5.125H17.5H17.375V5.25V17.5C17.375 18.3951 17.0194 19.2535 16.3865 19.8865C15.7535 20.5194 14.8951 20.875 14 20.875H5.25C4.35489 20.875 3.49645 20.5194 2.86351 19.8865C2.23058 19.2535 1.875 18.3951 1.875 17.5V5.25V5.125H1.75H0.875C0.676088 5.125 0.485322 5.04598 0.34467 4.90533C0.204018 4.76468 0.125 4.57391 0.125 4.375C0.125 4.17609 0.204018 3.98532 0.34467 3.84467C0.485322 3.70402 0.676088 3.625 0.875 3.625H6.125ZM11.375 3.625H11.5V3.5V2.625C11.5 2.35978 11.3946 2.10543 11.2071 1.91789C11.0196 1.73036 10.7652 1.625 10.5 1.625H8.75C8.48478 1.625 8.23043 1.73036 8.04289 1.91789C7.85536 2.10543 7.75 2.35978 7.75 2.625V3.5V3.625H7.875H11.375ZM3.5 5.125H3.375V5.25V17.5C3.375 17.9973 3.57254 18.4742 3.92418 18.8258C4.27581 19.1775 4.75272 19.375 5.25 19.375H14C14.4973 19.375 14.9742 19.1775 15.3258 18.8258C15.6775 18.4742 15.875 17.9973 15.875 17.5V5.25V5.125H15.75H3.5Z" fill="white" stroke="white" stroke-width="0.25"/>
<path id="Vector_2" d="M9.09467 8.21967C9.23532 8.07902 9.42609 8 9.625 8C9.82391 8 10.0147 8.07902 10.1553 8.21967C10.296 8.36032 10.375 8.55109 10.375 8.75V15.75C10.375 15.9489 10.296 16.1397 10.1553 16.2803C10.0147 16.421 9.82391 16.5 9.625 16.5C9.42609 16.5 9.23532 16.421 9.09467 16.2803C8.95402 16.1397 8.875 15.9489 8.875 15.75V8.75C8.875 8.55109 8.95402 8.36032 9.09467 8.21967Z" fill="white" stroke="white" stroke-width="0.25"/>
<path id="Vector_3" d="M12.5947 16.2803C12.454 16.1397 12.375 15.9489 12.375 15.75V8.75C12.375 8.55109 12.454 8.36032 12.5947 8.21967C12.7353 8.07902 12.9261 8 13.125 8C13.3239 8 13.5147 8.07902 13.6553 8.21967C13.796 8.36032 13.875 8.55109 13.875 8.75V15.75C13.875 15.9489 13.796 16.1397 13.6553 16.2803C13.5147 16.421 13.3239 16.5 13.125 16.5C12.9261 16.5 12.7353 16.421 12.5947 16.2803Z" fill="white" stroke="white" stroke-width="0.25"/>
<path id="Vector_4" d="M5.59467 8.21967C5.73532 8.07902 5.92609 8 6.125 8C6.32391 8 6.51468 8.07902 6.65533 8.21967C6.79598 8.36032 6.875 8.55109 6.875 8.75V15.75C6.875 15.9489 6.79598 16.1397 6.65533 16.2803C6.51468 16.421 6.32391 16.5 6.125 16.5C5.92609 16.5 5.73532 16.421 5.59467 16.2803C5.45402 16.1397 5.375 15.9489 5.375 15.75V8.75C5.375 8.55109 5.45402 8.36032 5.59467 8.21967Z" fill="white" stroke="white" stroke-width="0.25"/>
</g>
</svg>
