<svg width="30" height="30" viewBox="0 0 30 30" fill="none" xmlns="http://www.w3.org/2000/svg">
<g id="g2260">
<g id="g1542">
<path id="path1537" d="M4.6946 5.49969L4.7124 0.979126" stroke="#F1DEAC" stroke-width="1.86561" stroke-linecap="round" stroke-linejoin="round"/>
<path id="path1506" d="M4.60552 28.1472L4.66602 12.7881" stroke="#F1DEAC" stroke-width="1.86561" stroke-linecap="round" stroke-linejoin="round"/>
<path id="path1512" d="M4.66649 12.7881C6.68085 12.796 8.32023 11.1711 8.32816 9.15865C8.33609 7.14621 6.70956 5.50839 4.6952 5.50045C2.68083 5.49252 1.04143 7.11748 1.0335 9.12991C1.02557 11.1423 2.65213 12.7802 4.66649 12.7881Z" stroke="#F1DEAC" stroke-width="1.86561" stroke-linecap="round" stroke-linejoin="bevel"/>
</g>
<g id="g1547">
<path id="path1530" d="M14.6002 15.8588L14.6587 1.01831" stroke="#F1DEAC" stroke-width="1.86561" stroke-linecap="round" stroke-linejoin="round"/>
<path id="path1510" d="M14.5514 28.1856L14.5713 23.1466" stroke="#F1DEAC" stroke-width="1.86561" stroke-linecap="round" stroke-linejoin="round"/>
<path id="circle1514" d="M14.5713 23.1465C16.5856 23.1545 18.225 21.5295 18.2329 19.5171C18.2409 17.5046 16.6143 15.8668 14.6 15.8588C12.5856 15.8509 10.9462 17.4759 10.9383 19.4883C10.9304 21.5007 12.5569 23.1386 14.5713 23.1465Z" stroke="#F1DEAC" stroke-width="1.86561" stroke-linecap="round" stroke-linejoin="bevel"/>
</g>
<g id="g1552">
<path id="path1523" d="M24.5741 8.77855L24.6045 1.05762" stroke="#F1DEAC" stroke-width="1.86561" stroke-linecap="round" stroke-linejoin="round"/>
<path id="path1508" d="M24.497 28.2255L24.5449 16.0662" stroke="#F1DEAC" stroke-width="1.86561" stroke-linecap="round" stroke-linejoin="round"/>
<path id="circle1516" d="M24.5449 16.0662C26.5592 16.0741 28.1986 14.4492 28.2065 12.4367C28.2145 10.4243 26.5879 8.78646 24.5736 8.77853C22.5592 8.77059 20.9198 10.3956 20.9119 12.408C20.904 14.4204 22.5305 16.0583 24.5449 16.0662Z" stroke="#F1DEAC" stroke-width="1.86561" stroke-linecap="round" stroke-linejoin="bevel"/>
</g>
</g>
</svg>
