<svg width="32" height="32" viewBox="0 0 32 32" fill="none" xmlns="http://www.w3.org/2000/svg">
<g id="Layer_1">
<g id="Group">
<path id="Vector" d="M28.5 8.5V6H26V3.5H18.5V6H16H13.5V3.5H6V6H3.5V8.5H1V16H3.5V18.5H6V21H8.5V23.5H11V26H13.5V28.5H16L31 13.5V8.5H28.5Z" fill="#F1DEAC"/>
</g>
<g id="Group_2">
<path id="Vector_2" d="M10.5 8.5H6V13H10.5V8.5Z" fill="#027F9B"/>
</g>
<g id="Group_3" filter="url(#filter0_d_1898_31)">
<g id="Group_4">
<path id="Vector_3" d="M18.5 26H16V28.5H18.5V26Z" fill="#027F9B"/>
</g>
<g id="Group_5">
<path id="Vector_4" d="M21 23.5H18.5V26H21V23.5Z" fill="#027F9B"/>
</g>
<g id="Group_6">
<path id="Vector_5" d="M23.5 21H21V23.5H23.5V21Z" fill="#027F9B"/>
</g>
<g id="Group_7">
<path id="Vector_6" d="M26 18.5H23.5V21H26V18.5Z" fill="#027F9B"/>
</g>
<g id="Group_8">
<path id="Vector_7" d="M28.5 16H26V18.5H28.5V16Z" fill="#027F9B"/>
</g>
<g id="Group_9">
<path id="Vector_8" d="M31 13.5H28.5V16H31V13.5Z" fill="#027F9B"/>
</g>
</g>
</g>
<defs>
<filter id="filter0_d_1898_31" x="16" y="13.5" width="16" height="15.001" filterUnits="userSpaceOnUse" color-interpolation-filters="sRGB">
<feFlood flood-opacity="0" result="BackgroundImageFix"/>
<feColorMatrix in="SourceAlpha" type="matrix" values="0 0 0 0 0 0 0 0 0 0 0 0 0 0 0 0 0 0 127 0" result="hardAlpha"/>
<feOffset dx="1" dy="0.001"/>
<feComposite in2="hardAlpha" operator="out"/>
<feColorMatrix type="matrix" values="0 0 0 0 0.00784314 0 0 0 0 0.498039 0 0 0 0 0.607843 0 0 0 1 0"/>
<feBlend mode="normal" in2="BackgroundImageFix" result="effect1_dropShadow_1898_31"/>
<feBlend mode="normal" in="SourceGraphic" in2="effect1_dropShadow_1898_31" result="shape"/>
</filter>
</defs>
</svg>
