<svg width="14" height="21" viewBox="0 0 14 21" fill="none" xmlns="http://www.w3.org/2000/svg">
<path id="Vector" d="M12.162 20.3143C12.052 20.3144 11.9431 20.296 11.8414 20.2602C11.7397 20.2245 11.6474 20.1721 11.5696 20.106L1.24524 11.3297C1.08821 11.1962 1 11.0152 1 10.8264C1 10.6376 1.08821 10.4565 1.24524 10.323L11.5696 1.5468C11.6473 1.48067 11.7396 1.4282 11.8413 1.3924C11.9429 1.3566 12.0518 1.33816 12.1618 1.33813C12.2718 1.33811 12.3808 1.35651 12.4824 1.39227C12.584 1.42803 12.6764 1.48046 12.7542 1.54657C12.832 1.61267 12.8937 1.69115 12.9359 1.77753C12.978 1.86391 12.9997 1.95649 12.9997 2.05C12.9997 2.1435 12.9781 2.2361 12.936 2.32249C12.8939 2.40889 12.8322 2.48739 12.7545 2.55353L3.02208 10.8261L12.7545 19.0988C12.8717 19.1983 12.9515 19.3252 12.9839 19.4634C13.0162 19.6015 12.9996 19.7447 12.9362 19.8749C12.8728 20.005 12.7654 20.1162 12.6276 20.1944C12.4897 20.2727 12.3277 20.3144 12.162 20.3143Z" fill="white" stroke="white"/>
</svg>
