<svg width="23" height="25" viewBox="0 0 23 25" fill="none" xmlns="http://www.w3.org/2000/svg">
<g id="Logout Icon">
<path id="Vector" d="M20.5425 24.31H9.4878C8.46105 24.31 7.63965 23.422 7.63965 22.312V16.503C7.63965 16.281 7.77655 16.133 7.9819 16.133C8.18725 16.133 8.32415 16.281 8.32415 16.503V22.312C8.32415 23.015 8.83752 23.57 9.4878 23.57H20.5425C21.1927 23.57 21.7061 23.015 21.7061 22.312V2.998C21.7061 2.295 21.1927 1.74 20.5425 1.74H9.4878C8.83752 1.74 8.32415 2.295 8.32415 2.998V9.029C8.32415 9.251 8.18725 9.399 7.9819 9.399C7.77655 9.399 7.63965 9.251 7.63965 9.029V2.998C7.63965 1.888 8.46105 1 9.4878 1H20.5425C21.5692 1 22.3906 1.888 22.3906 2.998V22.312C22.4248 23.422 21.5692 24.31 20.5425 24.31Z" fill="black" stroke="black"/>
<path id="Vector_2" d="M13.0472 13.099H1.37643C1.17108 13.099 1.03418 12.951 1.03418 12.729C1.03418 12.507 1.17108 12.359 1.37643 12.359H13.0472C13.2525 12.359 13.3894 12.507 13.3894 12.729C13.3894 12.951 13.2525 13.099 13.0472 13.099Z" fill="black" stroke="black"/>
<path id="Vector_3" d="M1.34225 13.0991C1.23958 13.0991 1.17112 13.0621 1.10267 12.9881C0.965775 12.8401 0.965775 12.6181 1.10267 12.4701L3.63532 9.73209C3.77222 9.58409 3.97757 9.58409 4.11447 9.73209C4.25137 9.88009 4.25137 10.1021 4.11447 10.2501L1.58182 12.9881C1.5476 13.0621 1.44493 13.0991 1.34225 13.0991Z" fill="black" stroke="black"/>
<path id="Vector_4" d="M4.04598 15.985C3.9433 15.985 3.87485 15.948 3.8064 15.874L1.13685 13.025C0.999955 12.877 0.999955 12.655 1.13685 12.507C1.27375 12.359 1.4791 12.359 1.616 12.507L4.28555 15.393C4.42245 15.541 4.42245 15.763 4.28555 15.911C4.2171 15.948 4.11443 15.985 4.04598 15.985Z" fill="black" stroke="black"/>
</g>
</svg>
