<svg width="11" height="15" viewBox="0 0 11 15" fill="none" xmlns="http://www.w3.org/2000/svg">
<path d="M5.5 0C2.44444 0 0 2.48171 0 5.58386C0 9.43052 2.07778 12.8429 5.19444 14.8282C5.37778 14.9523 5.62222 14.9523 5.86667 14.8282C8.92222 12.7808 11 9.43052 11 5.58386C11 2.48171 8.55556 0 5.5 0ZM5.5 8.06557C4.15556 8.06557 3.05556 6.9488 3.05556 5.58386C3.05556 4.21891 4.15556 3.10214 5.5 3.10214C6.84444 3.10214 7.94444 4.21891 7.94444 5.58386C7.94444 6.9488 6.84444 8.06557 5.5 8.06557Z" fill="#F1DEAC"/>
</svg>
