<svg width="17" height="17" viewBox="0 0 17 17" fill="none" xmlns="http://www.w3.org/2000/svg">
<g id="Frame" clip-path="url(#clip0_1365_270)">
<g id="Layer 2">
<g id="Interface-Solid">
<g id="interface-solid-multimedia-refresh-button-1">
<path id="Vector" d="M1.74805 5.68037H5.00415C5.1835 5.68037 5.3555 5.60912 5.48232 5.4823C5.60914 5.35548 5.68039 5.18348 5.68039 5.00413C5.68039 4.82478 5.60914 4.65278 5.48232 4.52596C5.3555 4.39914 5.1835 4.3279 5.00415 4.3279H2.90372C3.58235 3.38278 4.48153 2.6177 5.52312 2.09915C6.5647 1.5806 7.71716 1.32428 8.88034 1.35245C10.2227 1.35251 11.536 1.74408 12.6592 2.4792C13.7824 3.21432 14.6669 4.26107 15.2042 5.49123C15.2766 5.65482 15.4108 5.78307 15.5775 5.84792C15.7443 5.91277 15.9299 5.90894 16.0938 5.83726C16.2577 5.76558 16.3865 5.63189 16.4521 5.46546C16.5176 5.29902 16.5146 5.11339 16.4436 4.94919C15.8009 3.47806 14.743 2.22631 13.3997 1.34725C12.0563 0.468189 10.4858 -1.52094e-05 8.88034 -2.0575e-05C7.35329 -0.0394313 5.84456 0.339775 4.51761 1.09652C3.19067 1.85326 2.09609 2.95868 1.35247 4.29303V0.676216C1.35247 0.496867 1.28123 0.324864 1.15441 0.198045C1.02759 0.0712256 0.855586 -2.0575e-05 0.676237 -2.0575e-05C0.496888 -2.0575e-05 0.324884 0.0712256 0.198065 0.198045C0.0712462 0.324864 0 0.496867 0 0.676216L0 5.00413C0.000121808 5.18344 0.0714071 5.35538 0.1982 5.48217C0.324992 5.60896 0.496925 5.68025 0.676237 5.68037H1.74805Z" fill="black"/>
<path id="Vector_2" d="M15.8238 10.8197H11.4958C11.3165 10.8197 11.1445 10.891 11.0177 11.0178C10.8908 11.1446 10.8196 11.3166 10.8196 11.496C10.8196 11.6753 10.8908 11.8473 11.0177 11.9741C11.1445 12.101 11.3165 12.1722 11.4958 12.1722H13.6326C13.091 13.111 12.3035 13.8842 11.355 14.4085C10.4065 14.9328 9.33291 15.1884 8.2499 15.1477C6.9075 15.1476 5.59426 14.756 4.47104 14.0209C3.34781 13.2858 2.46337 12.239 1.92603 11.0089C1.85397 10.8448 1.71973 10.716 1.55281 10.6508C1.38588 10.5856 1.19991 10.5894 1.03572 10.6612C0.87153 10.733 0.74255 10.867 0.677099 11.0338C0.611647 11.2007 0.615074 11.3866 0.686627 11.5509C1.32938 13.0221 2.38721 14.2738 3.73057 15.1529C5.07393 16.0319 6.64449 16.5001 8.2499 16.5001C9.69261 16.54 11.1153 16.1555 12.3414 15.3942C13.5676 14.6329 14.5433 13.5285 15.1475 12.2178V15.8239C15.1475 16.0032 15.2188 16.1752 15.3456 16.3021C15.4724 16.4289 15.6444 16.5001 15.8238 16.5001C16.0031 16.5001 16.1751 16.4289 16.3019 16.3021C16.4287 16.1752 16.5 16.0032 16.5 15.8239V11.496C16.5 11.3166 16.4287 11.1446 16.3019 11.0178C16.1751 10.891 16.0031 10.8198 15.8238 10.8197Z" fill="black"/>
</g>
</g>
</g>
</g>
<defs>
<clipPath id="clip0_1365_270">
<rect width="16.5004" height="16.5002" fill="white"/>
</clipPath>
</defs>
</svg>
