<svg width="37" height="37" viewBox="0 0 37 37" fill="none" xmlns="http://www.w3.org/2000/svg">
<g id="9310114_star_sparkle_stars_sparkles_icon 1">
<path id="Vector" d="M15.1646 7.98181C15.2326 9.81032 14.9226 11.6332 14.2539 13.3364C13.5853 15.0396 12.5723 16.5866 11.2785 17.8804C9.98463 19.1743 8.43772 20.1872 6.7345 20.8559C5.03128 21.5245 3.2084 21.8346 1.37988 21.7665C3.2084 21.6985 5.03128 22.0085 6.7345 22.6772C8.43772 23.3459 9.98463 24.3588 11.2785 25.6527C12.5723 26.9465 13.5853 28.4934 14.2539 30.1966C14.9226 31.8999 15.2326 33.7227 15.1646 35.5513C15.0966 33.7227 15.4066 31.8999 16.0753 30.1966C16.7439 28.4934 17.7569 26.9465 19.0507 25.6527C20.3446 24.3588 21.8915 23.3459 23.5947 22.6772C25.2979 22.0085 27.1208 21.6985 28.9493 21.7665C27.1208 21.8346 25.2979 21.5245 23.5947 20.8559C21.8915 20.1872 20.3446 19.1743 19.0507 17.8804C17.7569 16.5866 16.7439 15.0396 16.0753 13.3364C15.4066 11.6332 15.0966 9.81032 15.1646 7.98181Z" fill="#F1DEAC"/>
<path id="Vector_2" d="M29.1642 1.70593C29.1998 2.6633 29.0375 3.61773 28.6874 4.5095C28.3373 5.40127 27.8069 6.2112 27.1295 6.88863C26.452 7.56607 25.6421 8.09642 24.7503 8.44652C23.8586 8.79663 22.9041 8.95895 21.9468 8.92333C22.9041 8.8877 23.8586 9.05002 24.7503 9.40012C25.6421 9.75022 26.452 10.2806 27.1295 10.958C27.8069 11.6354 28.3373 12.4454 28.6874 13.3371C29.0375 14.2289 29.1998 15.1833 29.1642 16.1407C29.1286 15.1833 29.2909 14.2289 29.641 13.3371C29.9911 12.4454 30.5214 11.6354 31.1989 10.958C31.8763 10.2806 32.6862 9.75023 33.578 9.40012C34.4698 9.05002 35.4242 8.88771 36.3816 8.92333C35.4242 8.95894 34.4698 8.79663 33.578 8.44652C32.6862 8.09642 31.8763 7.56606 31.1989 6.88863C30.5214 6.2112 29.9911 5.40127 29.641 4.50949C29.2909 3.61772 29.1286 2.6633 29.1642 1.70593Z" fill="#F1DEAC"/>
</g>
</svg>
