<svg width="13" height="13" viewBox="0 0 13 13" fill="none" xmlns="http://www.w3.org/2000/svg">
<path d="M8.32812 4.0625H4.67188C4.33672 4.0625 4.0625 4.33672 4.0625 4.67188V8.32812C4.0625 8.66328 4.33672 8.9375 4.67188 8.9375H8.32812C8.66328 8.9375 8.9375 8.66328 8.9375 8.32812V4.67188C8.9375 4.33672 8.66328 4.0625 8.32812 4.0625ZM6.5 0C2.90977 0 0 2.90977 0 6.5C0 10.0902 2.90977 13 6.5 13C10.0902 13 13 10.0902 13 6.5C13 2.90977 10.0902 0 6.5 0ZM6.5 11.7812C3.5877 11.7812 1.21875 9.41205 1.21875 6.5C1.21875 3.58795 3.5877 1.21875 6.5 1.21875C9.4123 1.21875 11.7812 3.58795 11.7812 6.5C11.7812 9.41205 9.4123 11.7812 6.5 11.7812Z" fill="black"/>
</svg>
