<svg width="3" height="16" viewBox="0 0 3 16" fill="none" xmlns="http://www.w3.org/2000/svg">
<g id="Layer 62">
<path id="Vector" d="M1.49949 8.61542C1.08527 8.61542 0.749474 8.3399 0.749474 8.00003C0.749474 7.66016 1.08527 7.38464 1.49949 7.38464C1.91372 7.38464 2.24951 7.66016 2.24951 8.00003C2.24951 8.3399 1.91372 8.61542 1.49949 8.61542Z" fill="white"/>
<path id="Vector_2" d="M1.49996 9.23083C1.79664 9.23083 2.08666 9.15865 2.33334 9.02341C2.58002 8.88817 2.77228 8.69595 2.88582 8.47106C2.99935 8.24616 3.02906 7.9987 2.97118 7.75995C2.9133 7.5212 2.77043 7.3019 2.56065 7.12977C2.35086 6.95765 2.08358 6.84043 1.7926 6.79294C1.50163 6.74545 1.20002 6.76982 0.925922 6.86297C0.651826 6.95613 0.417552 7.11388 0.252726 7.31628C0.0878999 7.51868 -7.55787e-05 7.75664 -7.55787e-05 8.00006C-7.55787e-05 8.32648 0.157964 8.63953 0.439275 8.87035C0.720587 9.10116 1.10213 9.23083 1.49996 9.23083Z" fill="white"/>
<path id="Vector_3" d="M1.49949 1.84613C1.08527 1.84613 0.749474 1.57061 0.749474 1.23074C0.749474 0.890874 1.08527 0.615356 1.49949 0.615356C1.91372 0.615356 2.24951 0.890874 2.24951 1.23074C2.24951 1.57061 1.91372 1.84613 1.49949 1.84613Z" fill="white"/>
<path id="Vector_4" d="M1.49996 2.46155C1.79664 2.46155 2.08666 2.38936 2.33334 2.25412C2.58002 2.11888 2.77228 1.92666 2.88582 1.70177C2.99935 1.47688 3.02906 1.22941 2.97118 0.990661C2.9133 0.751915 2.77043 0.532612 2.56065 0.360485C2.35086 0.188359 2.08358 0.0711391 1.7926 0.0236495C1.50163 -0.0238401 1.20002 0.000533271 0.925922 0.0936875C0.651826 0.186842 0.417552 0.344593 0.252726 0.546993C0.0878999 0.749392 -7.55787e-05 0.987349 -7.55787e-05 1.23077C-7.55787e-05 1.55719 0.157964 1.87025 0.439275 2.10106C0.720587 2.33188 1.10213 2.46155 1.49996 2.46155Z" fill="white"/>
<path id="Vector_5" d="M1.49949 15.3847C1.08527 15.3847 0.749474 15.1092 0.749474 14.7693C0.749474 14.4294 1.08527 14.1539 1.49949 14.1539C1.91372 14.1539 2.24951 14.4294 2.24951 14.7693C2.24951 15.1092 1.91372 15.3847 1.49949 15.3847Z" fill="white"/>
<path id="Vector_6" d="M1.49996 16.0001C1.79664 16.0001 2.08666 15.9279 2.33334 15.7927C2.58002 15.6575 2.77228 15.4652 2.88582 15.2403C2.99935 15.0155 3.02906 14.768 2.97118 14.5292C2.9133 14.2905 2.77043 14.0712 2.56065 13.8991C2.35086 13.7269 2.08358 13.6097 1.7926 13.5622C1.50163 13.5147 1.20002 13.5391 0.925922 13.6323C0.651826 13.7254 0.417552 13.8832 0.252726 14.0856C0.0878999 14.288 -7.55787e-05 14.5259 -7.55787e-05 14.7693C-7.55787e-05 15.0958 0.157964 15.4088 0.439275 15.6396C0.720587 15.8704 1.10213 16.0001 1.49996 16.0001Z" fill="white"/>
</g>
</svg>
